<svg width="188" height="233" viewBox="0 0 188 233" fill="none" xmlns="http://www.w3.org/2000/svg">
<path d="M130.13 2.59643C158.1 -7.48981 187.668 13.0631 187.669 42.5917C187.669 67.0777 166.896 86.5131 142.261 85.075L15.7278 77.6886C6.89648 77.1731 0.000607917 69.9169 3.97394e-08 61.1389C-0.000482668 54.1657 4.39659 47.9375 11.0017 45.5556L130.13 2.59643Z" fill="#4E2BF4"/>
<path d="M53.4577 229.049C54.7385 233.108 60.4422 233.332 62.0429 229.387L85.3882 171.849L146.696 148.883C150.681 147.391 150.613 141.774 146.594 140.377L19.1296 96.0666C15.588 94.8354 12.1465 98.1375 13.2679 101.691L53.4577 229.049Z" fill="#4E2BF4"/>
</svg>
